# xmcd
#
# Track frame offsets: 
#        150
#        21942
#        42225
#        60790
#        78865
#        101527
#        122740
#        140817
#        158140
#        178162
#        202777
#        224512
#        248427
#        281012
#        304675
#
# Disc length: 4372 seconds
#
# Revision: 0
# Processed by: cddbd v1.5.2PL0 Copyright (c) Steve Scherf et al.
# Submitted via: ExactAudioCopy v0.95b4
#
DISCID=c811120f
DTITLE=Blue Rodeo - From Here to There: Best Of
DYEAR=1995
DGENRE=Alt Country
TTITLE0=Heart Like Mine
TTITLE1=Rose-Colored Glasses
TTITLE2=Try
TTITLE3=How Long
TTITLE4=Diamond Mine
TTITLE5=House of Dreams
TTITLE6=Til I Am Myself Again
TTITLE7=Trust Yourself
TTITLE8=After the Rain
TTITLE9=Lost Together
TTITLE10=Rain Down On My
TTITLE11=Already Gone
TTITLE12=Five Days In May
TTITLE13=Hasn't Hit Me Yet
TTITLE14=Bad Timing
EXTD=
EXTT0=
EXTT1=
EXTT2=
EXTT3=
EXTT4=
EXTT5=
EXTT6=
EXTT7=
EXTT8=
EXTT9=
EXTT10=
EXTT11=
EXTT12=
EXTT13=
EXTT14=
PLAYORDER=
